<svg xmlns="http://www.w3.org/2000/svg" width="1400" height="900" viewBox="0 0 1400 900">
  <defs>
    <linearGradient id="sky" x1="0" y1="0" x2="0" y2="1">
      <stop offset="0%" stop-color="#78c3f7"/>
      <stop offset="100%" stop-color="#cdeafc"/>
    </linearGradient>
    <linearGradient id="field" x1="0" y1="0" x2="0" y2="1">
      <stop offset="0%" stop-color="#7cb45a"/>
      <stop offset="100%" stop-color="#4b7f34"/>
    </linearGradient>
    <linearGradient id="path" x1="0" y1="0" x2="0" y2="1">
      <stop offset="0%" stop-color="#f7d88d"/>
      <stop offset="100%" stop-color="#d4ad68"/>
    </linearGradient>
  </defs>

  <rect width="1400" height="900" fill="url(#sky)"/>
  <circle cx="1240" cy="88" r="45" fill="#ffd84d"/>
  <path d="M0 250 C220 140, 480 250, 760 170 C980 110, 1180 220, 1400 170 L1400 360 L0 360 Z" fill="#87b98a"/>
  <path d="M0 340 C270 290, 620 390, 980 330 C1160 300, 1280 340, 1400 320 L1400 900 L0 900 Z" fill="url(#field)"/>

  <path d="M660 900 C670 790, 660 730, 700 640 C730 565, 720 510, 690 430 C660 360, 630 280, 650 210" stroke="url(#path)" stroke-width="120" fill="none" stroke-linecap="round"/>
  <circle cx="700" cy="560" r="130" fill="#efdcb3" opacity="0.9"/>
  <circle cx="700" cy="560" r="62" fill="#7bc0f2"/>
  <circle cx="700" cy="560" r="32" fill="#dff5ff"/>

  <g fill="#f4ebcf" stroke="#8a5f38" stroke-width="4">
    <rect x="120" y="430" width="220" height="150" rx="14"/>
    <rect x="450" y="470" width="240" height="130" rx="14"/>
    <rect x="760" y="480" width="200" height="120" rx="14"/>
    <rect x="1060" y="430" width="230" height="150" rx="14"/>
    <rect x="190" y="680" width="230" height="150" rx="14"/>
    <rect x="1030" y="670" width="240" height="160" rx="14"/>
    <rect x="980" y="220" width="260" height="170" rx="14"/>
    <rect x="200" y="210" width="300" height="170" rx="14"/>
    <rect x="560" y="210" width="260" height="170" rx="14"/>
  </g>

  <g font-family="Georgia, serif" font-weight="700" fill="#fff" text-anchor="middle">
    <rect x="345" y="18" width="710" height="90" rx="20" fill="#8f5326"/>
    <text x="700" y="76" font-size="58">The Village of Accussi</text>

    <rect x="130" y="145" width="400" height="58" rx="10" fill="#7e4a24"/><text x="330" y="186" font-size="46">U Giardini di Limuna</text>
    <rect x="560" y="145" width="260" height="58" rx="10" fill="#7e4a24"/><text x="690" y="186" font-size="48">A Vigna</text>
    <rect x="940" y="145" width="360" height="58" rx="10" fill="#7e4a24"/><text x="1120" y="186" font-size="46">A Cucina di Nonna</text>

    <rect x="120" y="365" width="300" height="58" rx="10" fill="#7e4a24"/><text x="270" y="406" font-size="48">U Negoziu</text>
    <rect x="505" y="350" width="350" height="58" rx="10" fill="#7e4a24"/><text x="680" y="391" font-size="52">A Chiazza</text>
    <rect x="1000" y="365" width="320" height="58" rx="10" fill="#7e4a24"/><text x="1160" y="406" font-size="50">U Mercatu</text>

    <rect x="140" y="615" width="270" height="58" rx="10" fill="#7e4a24"/><text x="275" y="656" font-size="48">U Caffè</text>
    <rect x="980" y="610" width="320" height="58" rx="10" fill="#7e4a24"/><text x="1140" y="651" font-size="50">A Spiaggia</text>
  </g>

  <text x="795" y="536" font-family="Georgia, serif" font-size="36" fill="#7e4a24" font-weight="700">La Posta</text>
</svg>
