<svg xmlns="http://www.w3.org/2000/svg" width="1400" height="900" viewBox="0 0 1400 900" role="img" aria-labelledby="title desc">
  <title id="title">Village of Accussi</title>
  <desc id="desc">Illustrated Sicilian hill village with piazza and vineyard path.</desc>
  <defs>
    <linearGradient id="sky" x1="0" x2="0" y1="0" y2="1">
      <stop offset="0%" stop-color="#87c3f1"/>
      <stop offset="100%" stop-color="#f7e0ad"/>
    </linearGradient>
    <linearGradient id="ground" x1="0" x2="0" y1="0" y2="1">
      <stop offset="0%" stop-color="#cfa66a"/>
      <stop offset="100%" stop-color="#9e7146"/>
    </linearGradient>
  </defs>
  <rect width="1400" height="900" fill="url(#sky)"/>
  <circle cx="1150" cy="150" r="70" fill="#ffe27f"/>
  <rect y="520" width="1400" height="380" fill="url(#ground)"/>
  <path d="M0 620 C260 540, 540 700, 840 620 C1040 560, 1200 600, 1400 560 L1400 900 L0 900 Z" fill="#8cb56f" opacity="0.8"/>
  <path d="M380 900 L760 540 L840 560 L460 900 Z" fill="#c9b088"/>

  <g transform="translate(760 280)">
    <rect x="0" y="120" width="420" height="250" rx="8" fill="#d4b38a"/>
    <rect x="28" y="152" width="80" height="88" fill="#7f5332"/>
    <rect x="130" y="152" width="80" height="88" fill="#7f5332"/>
    <rect x="232" y="152" width="80" height="88" fill="#7f5332"/>
    <polygon points="-18,130 210,20 438,130" fill="#a75f3e"/>
    <rect x="188" y="228" width="50" height="142" fill="#6b4025"/>
  </g>

  <g transform="translate(170 250)">
    <rect x="40" y="180" width="520" height="260" rx="12" fill="#e2c09a"/>
    <rect x="80" y="210" width="70" height="70" fill="#8a5e3b"/>
    <rect x="180" y="210" width="70" height="70" fill="#8a5e3b"/>
    <rect x="280" y="210" width="70" height="70" fill="#8a5e3b"/>
    <rect x="380" y="210" width="70" height="70" fill="#8a5e3b"/>
    <polygon points="20,180 300,60 580,180" fill="#b26d44"/>
    <circle cx="300" cy="360" r="44" fill="#8fb6c7"/>
    <circle cx="300" cy="360" r="22" fill="#e9f2f7"/>
  </g>

  <g fill="#5f8c3b">
    <circle cx="124" cy="530" r="42"/>
    <circle cx="108" cy="566" r="34"/>
    <circle cx="162" cy="566" r="34"/>
    <circle cx="1310" cy="550" r="50"/>
    <circle cx="1270" cy="590" r="38"/>
    <circle cx="1348" cy="595" r="38"/>
  </g>

  <text x="95" y="80" font-size="46" fill="#3f2c18" font-family="Georgia, serif">Accussi</text>
</svg>
