<svg xmlns="http://www.w3.org/2000/svg" width="1400" height="900" viewBox="0 0 1400 900">
  <defs>
    <linearGradient id="sky" x1="0" x2="0" y1="0" y2="1">
      <stop offset="0%" stop-color="#9ac8f0"/>
      <stop offset="100%" stop-color="#ffe0a0"/>
    </linearGradient>
  </defs>
  <rect width="1400" height="900" fill="url(#sky)"/>
  <circle cx="1080" cy="130" r="64" fill="#ffd969"/>
  <rect y="340" width="1400" height="560" fill="#7da15d"/>
  <path d="M0 430 C280 360, 430 520, 700 450 C940 390, 1140 500, 1400 430 L1400 900 L0 900 Z" fill="#6f8e4b"/>
  <g stroke="#5f6b34" stroke-width="6">
    <line x1="80" y1="880" x2="280" y2="380"/>
    <line x1="220" y1="880" x2="430" y2="370"/>
    <line x1="380" y1="880" x2="580" y2="365"/>
    <line x1="560" y1="880" x2="760" y2="360"/>
    <line x1="760" y1="880" x2="960" y2="370"/>
    <line x1="940" y1="880" x2="1140" y2="390"/>
    <line x1="1120" y1="880" x2="1310" y2="420"/>
  </g>
  <g fill="#6d2d6f" opacity="0.85">
    <circle cx="280" cy="500" r="22"/>
    <circle cx="430" cy="540" r="20"/>
    <circle cx="580" cy="515" r="24"/>
    <circle cx="760" cy="565" r="23"/>
    <circle cx="960" cy="530" r="20"/>
  </g>
  <text x="80" y="86" font-size="44" fill="#2f2518" font-family="Georgia, serif">Vigneti</text>
</svg>
